<svg width="24" height="24" viewBox="0 0 24 24" fill="none" xmlns="http://www.w3.org/2000/svg">
<rect width="24" height="24" rx="12" fill="#BFCCD9"/>
<path fill-rule="evenodd" clip-rule="evenodd" d="M4.83337 12C4.83337 8.0439 8.0439 4.83337 12 4.83337C15.9562 4.83337 19.1667 8.0439 19.1667 12C19.1667 15.9562 15.9562 19.1667 12 19.1667C8.0439 19.1667 4.83337 15.9562 4.83337 12ZM12.2533 9.00655C12.2533 8.73041 12.0294 8.50655 11.7533 8.50655C11.4772 8.50655 11.2533 8.73041 11.2533 9.00655V11.7399C11.2533 12.0575 11.3609 12.3758 11.5106 12.6384C11.6602 12.9008 11.8789 13.1548 12.151 13.3163L12.1517 13.3167L14.2171 14.5492C14.4542 14.6908 14.7611 14.6132 14.9027 14.3761C15.0442 14.139 14.9667 13.832 14.7295 13.6905L12.6629 12.4572L12.6615 12.4564C12.574 12.4045 12.4662 12.2955 12.3793 12.143C12.2924 11.9906 12.2533 11.8422 12.2533 11.7399V9.00655Z" fill="white"/>
</svg>
