<svg width="16" height="16" viewBox="0 0 16 16" fill="none" xmlns="http://www.w3.org/2000/svg">
<path fill-rule="evenodd" clip-rule="evenodd" d="M0.833374 8.00004C0.833374 4.0439 4.0439 0.833374 8.00004 0.833374C11.9562 0.833374 15.1667 4.0439 15.1667 8.00004C15.1667 11.9562 11.9562 15.1667 8.00004 15.1667C4.0439 15.1667 0.833374 11.9562 0.833374 8.00004ZM8.2533 5.00655C8.2533 4.73041 8.02944 4.50655 7.7533 4.50655C7.47715 4.50655 7.2533 4.73041 7.2533 5.00655V7.73988C7.2533 8.05752 7.36087 8.37582 7.51063 8.63841C7.66023 8.90075 7.87892 9.15482 8.15103 9.31629L8.15173 9.3167L10.2171 10.5492C10.4542 10.6908 10.7611 10.6132 10.9027 10.3761C11.0442 10.139 10.9667 9.83204 10.7295 9.69053L8.66286 8.45719L8.66153 8.45641C8.57396 8.40451 8.46623 8.29546 8.3793 8.14302C8.29239 7.99062 8.2533 7.84225 8.2533 7.73988V5.00655Z" fill="white"/>
</svg>
