<svg width="16" height="16" viewBox="0 0 16 16" fill="none" xmlns="http://www.w3.org/2000/svg">
<path fill-rule="evenodd" clip-rule="evenodd" d="M1.97994 1.95962C2.77345 1.16611 3.92309 0.813171 5.3335 0.813171H10.6668C12.0772 0.813171 13.2269 1.16611 14.0204 1.95962C14.8139 2.75312 15.1668 3.90277 15.1668 5.31317V8.6465C15.1668 10.0569 14.8139 11.2066 14.0204 12.0001C13.2269 12.7936 12.0772 13.1465 10.6668 13.1465H10.3335C10.2858 13.1465 10.2326 13.1712 10.1989 13.2148L10.1983 13.2157L9.20017 14.5465C8.89961 14.9473 8.46931 15.1865 8.00016 15.1865C7.53102 15.1865 7.10071 14.9473 6.80015 14.5465L5.7984 13.2108C5.79705 13.2095 5.79389 13.2065 5.78843 13.2022C5.77682 13.1931 5.76019 13.1822 5.73987 13.1721C5.71958 13.1619 5.70012 13.1547 5.6842 13.1504C5.67252 13.1473 5.66513 13.1465 5.66513 13.1465H5.3335C3.99132 13.1465 2.82092 12.9874 2.00424 12.2728C1.17105 11.5437 0.833496 10.3563 0.833496 8.6465V5.31317C0.833496 3.90277 1.18644 2.75312 1.97994 1.95962ZM6.39351 5.68003C6.39351 4.79058 7.11066 4.07334 8.00016 4.07334C8.88966 4.07334 9.60681 4.79058 9.60681 5.68003C9.60681 6.38197 9.14533 6.75242 8.84329 6.95882C8.71367 7.04838 8.63013 7.11882 8.57602 7.1914C8.53106 7.2517 8.50016 7.32143 8.50016 7.43337V7.57334C8.50016 7.84949 8.27631 8.07334 8.00016 8.07334C7.72402 8.07334 7.50016 7.84949 7.50016 7.57334V7.43337C7.50016 6.71546 7.97262 6.34478 8.27609 6.13524L8.2782 6.13379C8.40165 6.04948 8.48242 5.98066 8.53425 5.91071C8.57765 5.85213 8.60681 5.78519 8.60681 5.68003C8.60681 5.34282 8.33733 5.07334 8.00016 5.07334C7.663 5.07334 7.39351 5.34282 7.39351 5.68003C7.39351 5.95618 7.16966 6.18003 6.89351 6.18003C6.61737 6.18003 6.39351 5.95618 6.39351 5.68003ZM7.49717 9.16669C7.49717 8.89055 7.72103 8.66669 7.99717 8.66669H8.00317C8.27931 8.66669 8.50317 8.89055 8.50317 9.16669C8.50317 9.44283 8.27931 9.66669 8.00317 9.66669H7.99717C7.72103 9.66669 7.49717 9.44283 7.49717 9.16669Z" fill="white"/>
</svg>
