<svg width="16" height="16" viewBox="0 0 16 16" fill="none" xmlns="http://www.w3.org/2000/svg">
<path fill-rule="evenodd" clip-rule="evenodd" d="M1.11628 8C1.11628 4.21523 4.21523 1.11628 8 1.11628C11.7848 1.11628 14.8837 4.21523 14.8837 8C14.8837 11.7848 11.7848 14.8837 8 14.8837C4.21523 14.8837 1.11628 11.7848 1.11628 8ZM8 4.46512C8.30825 4.46512 8.55814 4.715 8.55814 5.02326V8.74419C8.55814 9.05244 8.30825 9.30233 8 9.30233C7.69175 9.30233 7.44186 9.05244 7.44186 8.74419V5.02326C7.44186 4.715 7.69175 4.46512 8 4.46512ZM7.25145 10.9767C7.25145 10.5657 7.58464 10.2326 7.99564 10.2326H8.00232C8.41333 10.2326 8.74651 10.5657 8.74651 10.9767C8.74651 11.3877 8.41333 11.7209 8.00232 11.7209H7.99564C7.58464 11.7209 7.25145 11.3877 7.25145 10.9767Z" fill="white"/>
</svg>
