<svg width="16" height="16" viewBox="0 0 16 16" fill="none" xmlns="http://www.w3.org/2000/svg">
<rect width="16" height="16" rx="8" fill="#5CD685"/>
<path d="M7.58535 12.4533V3.67999H8.51869V12.4533H7.58535ZM7.92135 11.4453C7.39869 11.4453 6.8978 11.3769 6.41869 11.24C5.93957 11.0969 5.5538 10.9133 5.26135 10.6893L5.77469 9.55066C6.05469 9.74977 6.38446 9.91466 6.76402 10.0453C7.1498 10.1698 7.53869 10.232 7.93069 10.232C8.22935 10.232 8.46891 10.204 8.64935 10.148C8.83602 10.0858 8.97291 10.0018 9.06002 9.89599C9.14713 9.79022 9.19069 9.66888 9.19069 9.53199C9.19069 9.35777 9.12224 9.22088 8.98535 9.12133C8.84846 9.01555 8.66802 8.93155 8.44402 8.86933C8.22002 8.80088 7.97113 8.73866 7.69735 8.68266C7.4298 8.62044 7.15913 8.54577 6.88535 8.45866C6.6178 8.37155 6.37202 8.25955 6.14802 8.12266C5.92402 7.98577 5.74046 7.80533 5.59735 7.58133C5.46046 7.35733 5.39202 7.0711 5.39202 6.72266C5.39202 6.34933 5.49157 6.01022 5.69069 5.70533C5.89602 5.39421 6.20091 5.14844 6.60535 4.96799C7.01602 4.78133 7.52935 4.68799 8.14535 4.68799C8.55602 4.68799 8.96046 4.73777 9.35869 4.83733C9.75691 4.93066 10.1085 5.07377 10.4134 5.26666L9.94669 6.41466C9.6418 6.24044 9.33691 6.11288 9.03202 6.03199C8.72713 5.94488 8.42846 5.90133 8.13602 5.90133C7.84358 5.90133 7.60402 5.93555 7.41735 6.00399C7.23069 6.07244 7.09691 6.16266 7.01602 6.27466C6.93513 6.38044 6.89469 6.50488 6.89469 6.64799C6.89469 6.81599 6.96313 6.95288 7.10002 7.05866C7.23691 7.15822 7.41735 7.2391 7.64135 7.30133C7.86535 7.36355 8.11113 7.42577 8.37869 7.48799C8.65246 7.55022 8.92313 7.62177 9.19069 7.70266C9.46446 7.78355 9.71335 7.89244 9.93735 8.02933C10.1614 8.16622 10.3418 8.34666 10.4787 8.57066C10.6218 8.79466 10.6934 9.07777 10.6934 9.41999C10.6934 9.7871 10.5907 10.1231 10.3854 10.428C10.18 10.7329 9.87202 10.9787 9.46135 11.1653C9.05691 11.352 8.54358 11.4453 7.92135 11.4453Z" fill="white"/>
</svg>
