<svg width="17" height="16" viewBox="0 0 17 16" fill="none" xmlns="http://www.w3.org/2000/svg">
<path fill-rule="evenodd" clip-rule="evenodd" d="M8.5 1.5C8.77614 1.5 9 1.72386 9 2V14C9 14.2761 8.77614 14.5 8.5 14.5C8.22386 14.5 8 14.2761 8 14V2C8 1.72386 8.22386 1.5 8.5 1.5Z" fill="#B043FF"/>
<path fill-rule="evenodd" clip-rule="evenodd" d="M15 8C15 8.27614 14.7761 8.5 14.5 8.5L2.5 8.5C2.22386 8.5 2 8.27614 2 8C2 7.72386 2.22386 7.5 2.5 7.5L14.5 7.5C14.7761 7.5 15 7.72386 15 8Z" fill="#B043FF"/>
</svg>
