<svg width="16" height="16" viewBox="0 0 16 16" fill="none" xmlns="http://www.w3.org/2000/svg">
<path fill-rule="evenodd" clip-rule="evenodd" d="M10.3535 2.36666C10.5488 2.56192 10.5488 2.87851 10.3535 3.07377L6.00686 7.42044C5.68879 7.73851 5.68879 8.26192 6.00686 8.58L10.3535 12.9267C10.5488 13.1219 10.5488 13.4385 10.3535 13.6338C10.1583 13.829 9.84169 13.829 9.64642 13.6338L5.29976 9.2871C4.59116 8.57851 4.59116 7.42192 5.29976 6.71333L9.64642 2.36666C9.84169 2.1714 10.1583 2.1714 10.3535 2.36666Z" fill="#1A86E5"/>
<path fill-rule="evenodd" clip-rule="evenodd" d="M10.3535 2.36666C10.5488 2.56192 10.5488 2.87851 10.3535 3.07377L6.00686 7.42044C5.68879 7.73851 5.68879 8.26192 6.00686 8.58L10.3535 12.9267C10.5488 13.1219 10.5488 13.4385 10.3535 13.6338C10.1583 13.829 9.84169 13.829 9.64642 13.6338L5.29976 9.2871C4.59116 8.57851 4.59116 7.42192 5.29976 6.71333L9.64642 2.36666C9.84169 2.1714 10.1583 2.1714 10.3535 2.36666Z" fill="#1A86E5"/>
</svg>
