<svg width="17" height="16" viewBox="0 0 17 16" fill="none" xmlns="http://www.w3.org/2000/svg">
<path fill-rule="evenodd" clip-rule="evenodd" d="M2.46719 1.92852C2.82224 1.59411 3.31726 1.5 3.84 1.5H5.99333C6.51607 1.5 7.01109 1.59411 7.36615 1.92852C7.72884 2.27013 7.83333 2.75469 7.83333 3.26V12.74C7.83333 13.2453 7.72884 13.7299 7.36615 14.0715C7.01109 14.4059 6.51607 14.5 5.99333 14.5H3.84C3.31726 14.5 2.82224 14.4059 2.46719 14.0715C2.10449 13.7299 2 13.2453 2 12.74V3.26C2 2.75469 2.10449 2.27013 2.46719 1.92852ZM3.15281 2.65648C3.08551 2.71987 3 2.86531 3 3.26V12.74C3 13.1347 3.08551 13.2801 3.15281 13.3435C3.22776 13.4141 3.40274 13.5 3.84 13.5H5.99333C6.4306 13.5 6.60557 13.4141 6.68052 13.3435C6.74783 13.2801 6.83333 13.1347 6.83333 12.74V3.26C6.83333 2.86531 6.74783 2.71987 6.68052 2.65648C6.60557 2.58589 6.4306 2.5 5.99333 2.5H3.84C3.40274 2.5 3.22776 2.58589 3.15281 2.65648Z" fill="white"/>
<path fill-rule="evenodd" clip-rule="evenodd" d="M9.63706 1.92786C9.99236 1.59451 10.4863 1.5 11.0067 1.5H13.1597C13.6825 1.5 14.1775 1.59411 14.5326 1.92852C14.8952 2.27013 14.9997 2.75469 14.9997 3.26V12.74C14.9997 13.2453 14.8952 13.7299 14.5326 14.0715C14.1775 14.4059 13.6825 14.5 13.1597 14.5H11.0067C10.4839 14.5 9.98891 14.4059 9.63385 14.0715C9.27116 13.7299 9.16667 13.2453 9.16667 12.74V3.26C9.16667 2.75259 9.27378 2.26869 9.63706 1.92786ZM10.3213 2.65714C10.2529 2.72131 10.1667 2.86741 10.1667 3.26V12.74C10.1667 13.1347 10.2522 13.2801 10.3195 13.3435C10.3944 13.4141 10.5694 13.5 11.0067 13.5H13.1597C13.597 13.5 13.772 13.4141 13.8469 13.3435C13.9142 13.2801 13.9997 13.1347 13.9997 12.74V3.26C13.9997 2.86531 13.9142 2.71987 13.8469 2.65648C13.772 2.58589 13.597 2.5 13.1597 2.5H11.0067C10.5737 2.5 10.3976 2.58549 10.3213 2.65714Z" fill="white"/>
</svg>
