<svg width="16" height="16" viewBox="0 0 16 16" fill="none" xmlns="http://www.w3.org/2000/svg">
<path fill-rule="evenodd" clip-rule="evenodd" d="M4.27939 3.06221C3.64652 3.42789 3.16675 4.26041 3.16675 5.62679V10.3735C3.16675 11.7398 3.64652 12.5724 4.27939 12.938C4.91219 13.3037 5.87289 13.3036 7.05685 12.6204L11.1649 10.2539C12.3757 9.46017 12.8511 8.62526 12.8492 7.92394C12.8474 7.22929 12.375 6.4446 11.177 5.75327C11.1769 5.75324 11.177 5.75329 11.177 5.75327L7.05717 3.38004C5.8732 2.69687 4.91219 2.69658 4.27939 3.06221ZM7.55651 2.51363C6.18718 1.72355 4.82794 1.59034 3.7791 2.19636C2.73031 2.80235 2.16675 4.04649 2.16675 5.62679V10.3735C2.16675 11.9537 2.73031 13.1979 3.7791 13.8039C4.82797 14.4099 6.18727 14.2767 7.55664 13.4865L11.6763 11.1134C11.6844 11.1087 11.6923 11.1039 11.7001 11.0988C13.0541 10.2148 13.8524 9.10942 13.8492 7.92129C13.8461 6.7243 13.0318 5.66903 11.6766 4.88704L7.55651 2.51363C7.55655 2.51366 7.55646 2.51361 7.55651 2.51363Z" fill="white"/>
<path fill-rule="evenodd" clip-rule="evenodd" d="M4.27939 3.06221C3.64652 3.42789 3.16675 4.26041 3.16675 5.62679V10.3735C3.16675 11.7398 3.64652 12.5724 4.27939 12.938C4.91219 13.3037 5.87289 13.3036 7.05685 12.6204L11.1649 10.2539C12.3757 9.46017 12.8511 8.62526 12.8492 7.92394C12.8474 7.22929 12.375 6.4446 11.177 5.75327C11.1769 5.75324 11.177 5.75329 11.177 5.75327L7.05717 3.38004C5.8732 2.69687 4.91219 2.69658 4.27939 3.06221ZM7.55651 2.51363C6.18718 1.72355 4.82794 1.59034 3.7791 2.19636C2.73031 2.80235 2.16675 4.04649 2.16675 5.62679V10.3735C2.16675 11.9537 2.73031 13.1979 3.7791 13.8039C4.82797 14.4099 6.18727 14.2767 7.55664 13.4865L11.6763 11.1134C11.6844 11.1087 11.6923 11.1039 11.7001 11.0988C13.0541 10.2148 13.8524 9.10942 13.8492 7.92129C13.8461 6.7243 13.0318 5.66903 11.6766 4.88704L7.55651 2.51363C7.55655 2.51366 7.55646 2.51361 7.55651 2.51363Z" fill="white"/>
</svg>
