<svg width="16" height="16" viewBox="0 0 16 16" fill="none" xmlns="http://www.w3.org/2000/svg">
<path fill-rule="evenodd" clip-rule="evenodd" d="M14.1226 4.12014C14.3324 4.29969 14.3569 4.61533 14.1774 4.82512L9.04225 10.8251C8.86269 11.0349 8.54706 11.0594 8.33726 10.8799C8.12747 10.7003 8.10295 10.3847 8.28251 10.1749L13.4176 4.1749C13.5972 3.9651 13.9128 3.94058 14.1226 4.12014Z" fill="#1A86E5"/>
<path fill-rule="evenodd" clip-rule="evenodd" d="M11.0414 4.12014C11.2511 4.29969 11.2757 4.61533 11.0961 4.82512L5.65052 11.1879L2.19277 8.49446C1.97491 8.32477 1.93588 8.0106 2.10557 7.79275C2.27526 7.5749 2.58943 7.53586 2.80728 7.70556L5.51169 9.81215L10.3364 4.1749C10.5159 3.9651 10.8316 3.94058 11.0414 4.12014Z" fill="#1A86E5"/>
<path fill-rule="evenodd" clip-rule="evenodd" d="M14.1226 4.12014C14.3324 4.29969 14.3569 4.61533 14.1774 4.82512L9.04225 10.8251C8.86269 11.0349 8.54706 11.0594 8.33726 10.8799C8.12747 10.7003 8.10295 10.3847 8.28251 10.1749L13.4176 4.1749C13.5972 3.9651 13.9128 3.94058 14.1226 4.12014Z" fill="#1A86E5"/>
<path fill-rule="evenodd" clip-rule="evenodd" d="M11.0414 4.12014C11.2511 4.29969 11.2757 4.61533 11.0961 4.82512L5.65052 11.1879L2.19277 8.49446C1.97491 8.32477 1.93588 8.0106 2.10557 7.79275C2.27526 7.5749 2.58943 7.53586 2.80728 7.70556L5.51169 9.81215L10.3364 4.1749C10.5159 3.9651 10.8316 3.94058 11.0414 4.12014Z" fill="#1A86E5"/>
</svg>
