<svg width="24" height="24" viewBox="0 0 24 24" fill="none" xmlns="http://www.w3.org/2000/svg">
<path fill-rule="evenodd" clip-rule="evenodd" d="M5.93326 2.27738C7.04422 2.38331 8.36283 2.817 9.84571 3.55971L18.4055 7.83958C20.4342 8.85396 21.7 10.3189 21.7 12.0004C21.7 13.6819 20.4342 15.1468 18.4055 16.1612L9.84545 20.4412C8.36016 21.1839 7.04035 21.6175 5.92901 21.7234C4.82089 21.829 3.81579 21.614 3.12436 20.9216C2.43301 20.2294 2.21919 19.2241 2.32567 18.1166C2.43247 17.0058 2.86676 15.6873 3.60945 14.2045L4.47952 12.4744C4.52286 12.3873 4.56504 12.2184 4.56504 12.0054C4.56504 11.7919 4.52266 11.6227 4.47922 11.5358L3.60922 9.79581C2.86659 8.31304 2.43295 6.99452 2.32702 5.88362C2.22138 4.77575 2.43657 3.77071 3.12846 3.07882C3.82035 2.38694 4.82539 2.17175 5.93326 2.27738ZM4.68945 12C4.68945 12.4142 5.02524 12.75 5.43945 12.75H5.96979H10.8395C11.2537 12.75 11.5895 12.4142 11.5895 12C11.5895 11.5858 11.2537 11.25 10.8395 11.25H5.96683H5.43945C5.02524 11.25 4.68945 11.5858 4.68945 12Z" fill="#B043FF"/>
</svg>
