<svg width="17" height="16" viewBox="0 0 17 16" fill="none" xmlns="http://www.w3.org/2000/svg">
<path fill-rule="evenodd" clip-rule="evenodd" d="M3.81052 3.35627C5.14689 3.2213 6.48341 3.15381 7.82004 3.15381C10.0636 3.15381 12.3134 3.268 14.5493 3.48958C14.8241 3.51681 15.0248 3.76165 14.9976 4.03645C14.9704 4.31125 14.7255 4.51194 14.4507 4.4847C12.2467 4.26628 10.0298 4.15381 7.82004 4.15381C6.5169 4.15381 5.21367 4.21962 3.91029 4.35128L3.90882 4.35142L2.54882 4.48476C2.274 4.5117 2.02937 4.31075 2.00242 4.03593C1.97548 3.7611 2.17643 3.51647 2.45125 3.48953L3.81052 3.35627Z" fill="#7B879D"/>
<path fill-rule="evenodd" clip-rule="evenodd" d="M6.80647 2.5232L6.65984 3.39631C6.61411 3.66863 6.35626 3.85233 6.08394 3.80659C5.81161 3.76086 5.62792 3.50301 5.67365 3.23069L5.82032 2.35735C5.82288 2.34214 5.82552 2.32621 5.82819 2.31008C5.87409 2.03282 5.94144 1.62608 6.21257 1.31862C6.52861 0.960241 7.01081 0.833496 7.62675 0.833496H9.37341C9.99684 0.833496 10.4786 0.970429 10.7927 1.33246C11.0642 1.64533 11.1299 2.05353 11.1737 2.3261C11.1759 2.33936 11.1779 2.35231 11.18 2.3649L11.3264 3.23007C11.3725 3.50234 11.1891 3.76041 10.9168 3.80649C10.6446 3.85256 10.3865 3.6692 10.3404 3.39693L10.1933 2.52729C10.1375 2.18528 10.1022 2.06251 10.0374 1.98787C10.0016 1.94656 9.87665 1.8335 9.37341 1.8335H7.62675C7.11601 1.8335 6.99488 1.94342 6.96259 1.98004C6.90118 2.04967 6.86652 2.16667 6.80647 2.5232Z" fill="#7B879D"/>
<path fill-rule="evenodd" clip-rule="evenodd" d="M13.0985 5.59432C13.3741 5.61211 13.583 5.84992 13.5653 6.12549L13.1317 12.8416L13.1309 12.8542C13.1133 13.1051 13.094 13.3809 13.0423 13.6375C12.9887 13.9036 12.8942 14.1845 12.7028 14.4337C12.302 14.9555 11.62 15.1666 10.6396 15.1666H6.35963C5.37925 15.1666 4.69721 14.9555 4.29643 14.4337C4.10503 14.1845 4.01056 13.9036 3.95697 13.6375C3.90528 13.3809 3.88597 13.1051 3.8684 12.8542L3.86733 12.8388L3.434 6.12549C3.41621 5.84992 3.62518 5.61211 3.90075 5.59432C4.17632 5.57653 4.41413 5.7855 4.43192 6.06107L4.86507 12.7717L4.86517 12.773C4.88398 13.0415 4.89991 13.2545 4.93729 13.4401C4.97369 13.6208 5.02423 13.7396 5.08949 13.8245C5.20204 13.9711 5.48 14.1666 6.35963 14.1666H10.6396C11.5193 14.1666 11.7972 13.9711 11.9098 13.8245C11.975 13.7396 12.0256 13.6208 12.062 13.4401C12.0993 13.2545 12.1153 13.0415 12.1341 12.773L12.1342 12.7717L12.5673 6.06107C12.5851 5.7855 12.8229 5.57653 13.0985 5.59432Z" fill="#7B879D"/>
<path fill-rule="evenodd" clip-rule="evenodd" d="M6.88672 11.0002C6.88672 10.724 7.11058 10.5002 7.38672 10.5002H9.60672C9.88286 10.5002 10.1067 10.724 10.1067 11.0002C10.1067 11.2763 9.88286 11.5002 9.60672 11.5002H7.38672C7.11058 11.5002 6.88672 11.2763 6.88672 11.0002Z" fill="#7B879D"/>
<path fill-rule="evenodd" clip-rule="evenodd" d="M6.33333 8.3335C6.33333 8.05735 6.55719 7.8335 6.83333 7.8335H10.1667C10.4428 7.8335 10.6667 8.05735 10.6667 8.3335C10.6667 8.60964 10.4428 8.8335 10.1667 8.8335H6.83333C6.55719 8.8335 6.33333 8.60964 6.33333 8.3335Z" fill="#7B879D"/>
</svg>
